<svg xmlns="http://www.w3.org/2000/svg" version="1.1" xmlns:xlink="http://www.w3.org/1999/xlink"
  width="1000" height="1000">
  <g clip-path="url(#SvgjsClipPath1554)">
    <rect width="1000" height="1000" fill="#171717"></rect>
    <g transform="matrix(29.166666666666668,0,0,29.166666666666668,150,150)">
      <svg xmlns="http://www.w3.org/2000/svg" version="1.1"
        xmlns:xlink="http://www.w3.org/1999/xlink" width="24" height="24">
        <svg xmlns="http://www.w3.org/2000/svg" width="24" height="24" viewBox="0 0 24 24"
          fill="none" stroke="#ffffff" stroke-width="2" stroke-linecap="round"
          stroke-linejoin="round" class="lucide lucide-feather-icon lucide-feather">
          <path
            d="M12.67 19a2 2 0 0 0 1.416-.588l6.154-6.172a6 6 0 0 0-8.49-8.49L5.586 9.914A2 2 0 0 0 5 11.328V18a1 1 0 0 0 1 1z"></path>
          <path d="M16 8 2 22"></path>
          <path d="M17.5 15H9"></path>
        </svg>
      </svg>
    </g>
  </g>
  <defs>
    <clipPath id="SvgjsClipPath1554">
      <rect width="1000" height="1000" x="0" y="0" rx="250" ry="250"></rect>
    </clipPath>
  </defs>
</svg>